<svg version="1.1" id="Layer_1" xmlns:x="ns_extend;" xmlns:i="ns_ai;" xmlns:graph="ns_graphs;" xmlns="http://www.w3.org/2000/svg" xmlns:xlink="http://www.w3.org/1999/xlink" x="0px" y="0px" viewBox="0 0 287.9 100" style="enable-background:new 0 0 287.9 100;" xml:space="preserve">
 <style type="text/css">
  .st0{fill:#010202;}
 </style>
 <metadata>
  <sfw xmlns="ns_sfw;">
   <slices>
   </slices>
   <sliceSourceBounds bottomLeftOrigin="true" height="100" width="287.9" x="5.7" y="-232.5">
   </sliceSourceBounds>
  </sfw>
 </metadata>
 <g>
  <rect x="239.8" class="st0" width="19.5" height="98.2">
  </rect>
  <path class="st0" d="M232.2,51.6c-1.3-5-3.4-9.5-6.3-13.5c-2.9-3.9-6.6-7.1-11.1-9.4c-4.5-2.3-9.8-3.5-15.8-3.5
		c-5.4,0-10.3,1-14.8,2.9c-4.4,1.9-8.3,4.6-11.5,7.9c-3.2,3.3-5.7,7.3-7.4,11.9c-1.7,4.6-2.6,9.5-2.6,14.8c0,5.5,0.8,10.5,2.5,15.1
		c1.7,4.6,4.1,8.5,7.2,11.8c3.1,3.3,6.9,5.8,11.4,7.6c4.5,1.8,9.5,2.7,15.1,2.7c8.1,0,14.9-1.8,20.6-5.5c5.7-3.7,9.9-9.8,12.7-18.3
		h-17.2c-0.6,2.2-2.4,4.3-5.2,6.3c-2.8,2-6.2,3-10.2,3c-5.5,0-9.7-1.4-12.7-4.3c-2.9-2.9-4.5-7.4-4.8-13.8h51.3
		C234,61.9,233.5,56.6,232.2,51.6z M182.3,55c0.1-1.4,0.4-2.9,0.9-4.7c0.5-1.7,1.4-3.4,2.6-5c1.2-1.6,2.9-2.9,4.9-3.9
		c2.1-1.1,4.7-1.6,7.8-1.6c4.8,0,8.3,1.3,10.7,3.8c2.3,2.6,4,6.3,4.9,11.3L182.3,55L182.3,55z">
  </path>
  <path class="st0" d="M138.2,98.2v-9.9h-0.4c-2.5,4.1-5.7,7.1-9.6,8.9c-3.9,1.8-8,2.8-12.1,2.8c-5.2,0-9.5-0.7-12.9-2.1
		c-3.3-1.4-6-3.3-7.9-5.8c-1.9-2.5-3.3-5.6-4.1-9.2c-0.8-3.6-1.2-7.6-1.2-12V27.1h19.5v40.2c0,5.9,0.9,10.2,2.8,13.1
		c1.8,2.9,5.1,4.3,9.8,4.3c5.3,0,9.2-1.6,11.6-4.7c2.4-3.2,3.6-8.4,3.6-15.6V27.1h19.5v71.1H138.2z">
  </path>
  <polygon class="st0" points="21.6,0 21.6,37.7 61.3,37.7 61.3,0 82.9,0 82.9,98.2 61.3,98.2 61.3,55.8 21.6,55.8 21.6,98.2 0,98.2 
		0,0 	">
  </polygon>
  <g>
   <path class="st0" d="M277.5,7.8c0.1,0.2,0.2,0.5,0.2,0.9c0,0.5-0.1,0.9-0.2,1c-0.3,0.7-1.5,0.6-1.5,0.6v0l-1.4,0V7.2h1.6
			C276.5,7.2,277.3,7.3,277.5,7.8 M280.8,8.1c0-1.8-1-2.5-2.2-2.8C277.5,5,276.2,5,276.2,5h-1.6h-1.4h-1.6v11.9h3v-4.6h0.6
			c0.6,0.1,1.5,0.2,1.9,0.8c0.6,0.8,2,3.8,2,3.8l3.2,0c0,0-1-2.2-1.5-3.2c-0.5-1-1.1-2.1-1.9-2.3c-0.1,0-0.2,0-0.3,0
			c0.3-0.1,0.7-0.4,1.1-0.5C280.3,10.5,280.8,9.9,280.8,8.1">
   </path>
   <path class="st0" d="M285.9,11.3c0,2.6-0.9,4.8-2.7,6.7c-1.8,1.8-4,2.8-6.6,2.8c-2.6,0-4.8-0.9-6.6-2.7c-1.8-1.8-2.7-4.1-2.7-6.7
			c0-2.5,0.9-4.7,2.7-6.6c1.8-1.9,4-2.8,6.6-2.8c2.6,0,4.8,0.9,6.6,2.8C285,6.6,285.9,8.8,285.9,11.3 M287.9,11.3
			c0-3.1-1.1-5.8-3.3-8c-2.2-2.2-4.9-3.3-8-3.3c-3,0-5.6,1-7.8,3.1c-2.4,2.2-3.5,4.9-3.5,8.2c0,3.2,1.1,5.9,3.3,8
			c2.2,2.2,4.9,3.3,8,3.3c3.1,0,5.7-1.1,7.9-3.2C286.8,17.2,287.9,14.5,287.9,11.3">
   </path>
  </g>
 </g>
</svg>