<svg viewBox="0 0 148 49" fill="none" xmlns="http://www.w3.org/2000/svg">
<path d="M134.475 45.2329H98.1295C92.3037 45.2329 87.6055 40.5194 87.6055 34.6747V13.5582C87.6055 7.7135 92.3037 3 98.1295 3H134.475C140.301 3 144.999 7.7135 144.999 13.5582V34.6747C144.999 40.5194 140.301 45.2329 134.475 45.2329Z" fill="#101010"></path>
<path d="M6.23239 36.6358V12.1256C6.23239 10.9944 6.08205 10.2025 5.74377 9.67459C5.4055 9.14668 4.84171 8.88272 4.08999 8.88272H3V4.96109H4.08999C6.42032 4.96109 8.0741 5.56442 9.08892 6.80878C10.1037 8.05314 10.5924 9.78771 10.5924 12.1256V36.6358H6.23239Z" fill="#101010"></path>
<path d="M35.0981 32.7516C32.9557 32.7516 32.9181 31.2433 32.9181 29.5087V21.1753C32.9181 17.9324 32.016 15.5945 30.2495 14.1993C28.4453 12.8041 26.115 12.1254 23.1833 12.1254C21.6799 12.1254 20.2516 12.427 18.8609 13.0681C17.4703 13.7091 16.3427 14.6141 15.403 15.8962C14.4634 17.1782 13.8996 18.762 13.7117 20.6474H18.034C18.1468 19.0636 18.673 17.9324 19.6126 17.1782C20.5523 16.4241 21.7175 16.047 23.1833 16.047C24.7995 16.047 26.115 16.4241 27.0923 17.1405C28.0695 17.857 28.5957 19.2145 28.5957 21.213V22.8344H22.0933C19.1616 22.8344 16.9065 23.4755 15.2903 24.7952C13.6741 26.115 12.8848 27.8496 12.8848 30.0744C12.8848 32.2991 13.6741 34.0337 15.2903 35.3158C16.8689 36.5978 19.1616 37.2389 22.0933 37.2389C23.6343 37.2389 24.9874 36.9372 26.1526 36.2962C27.3178 35.6552 28.295 34.8256 29.0843 33.8075C29.4602 34.7879 30.0615 35.542 30.8884 35.9945C31.7153 36.447 32.8429 36.711 34.2712 36.711H35.6243V32.827H35.0981V32.7516ZM27.656 30.2629C27.0547 31.2433 26.2278 31.9975 25.2505 32.5254C24.2357 33.0533 23.2209 33.2795 22.0933 33.2795C20.7026 33.2795 19.5375 32.9779 18.6354 32.3746C17.7334 31.7712 17.2447 30.9794 17.2447 30.0367C17.2447 28.9054 17.6958 28.0381 18.5602 27.5102C19.4247 26.9823 20.6275 26.6806 22.0933 26.6806H28.5957C28.5957 28.0758 28.295 29.2825 27.656 30.2629Z" fill="#101010"></path>
<path d="M57.7254 12.6533L48.0658 36.6355H43.2924L33.6328 12.6533H38.2559L45.6979 31.1679L53.1399 12.6533H57.7254Z" fill="#101010"></path>
<path d="M71.4829 17.1034C70.5056 16.3869 69.1901 16.0099 67.5739 16.0099C66.1081 16.0099 64.9429 16.3869 64.0033 17.1411C63.0636 17.8953 62.5374 19.0642 62.4247 20.6102H58.1023C58.2902 18.7248 58.854 17.1411 59.7936 15.859C60.7333 14.577 61.8985 13.6343 63.2516 13.0309C64.6047 12.4276 66.0705 12.0882 67.5739 12.0882C70.5056 12.0882 72.836 12.767 74.6401 14.1622C76.4442 15.5574 77.3087 17.8575 77.3087 21.1381V29.4716C77.3087 30.4897 77.3839 31.2816 77.5718 31.8849C77.7597 32.4505 78.2108 32.7522 78.9249 32.7522H80.0149V36.6361H78.6618C77.2335 36.6361 76.106 36.4099 75.2791 35.9197C74.4522 35.4672 73.8508 34.713 73.4749 33.7326C72.6856 34.7507 71.7084 35.5803 70.5432 36.2213C69.3781 36.8624 68.025 37.164 66.4839 37.164C63.5522 37.164 61.2595 36.523 59.6809 35.2409C58.1023 33.9589 57.2754 32.2243 57.2754 29.9995C57.2754 27.7747 58.0647 26.0402 59.6809 24.7204C61.2971 23.4006 63.5522 22.7596 66.4839 22.7596H72.9863V21.1381C72.9863 19.1773 72.4977 17.8198 71.4829 17.1034ZM63.026 32.3751C63.9657 32.9784 65.1309 33.2801 66.4839 33.2801C67.6115 33.2801 68.6639 33.0162 69.6412 32.526C70.6184 31.998 71.4453 31.2439 72.0467 30.2635C72.648 29.2831 72.9863 28.0764 72.9863 26.6812H66.4839C65.0181 26.6812 63.8153 26.9452 62.9509 27.5108C62.0864 28.0764 61.6354 28.906 61.6354 30.0372C61.6354 31.0176 62.0864 31.7718 63.026 32.3751Z" fill="#101010"></path>
<path d="M100.159 11.2574L100.121 16.4611H104.068V19.1007H100.121L100.159 27.8867C100.159 28.6408 100.347 29.2064 100.648 29.5458C100.986 29.8852 101.55 30.0737 102.339 30.0737H103.805V32.7133H101.587C100.009 32.7133 98.881 32.2985 98.2044 31.4689C97.5279 30.6393 97.1896 29.4327 97.1896 27.8867V19.1007H94.5586V16.4611H97.1896V11.2197L100.159 11.2574Z" fill="white"></path>
<path d="M109.069 31.9598C107.828 31.2056 106.889 30.1875 106.212 28.8677C105.536 27.5856 105.197 26.1527 105.197 24.569C105.197 22.9853 105.536 21.5524 106.174 20.2703C106.813 18.9882 107.753 17.9324 108.956 17.216C110.159 16.4618 111.624 16.0847 113.278 16.0847C114.932 16.0847 116.398 16.4618 117.601 17.216C118.803 17.9701 119.743 18.9882 120.382 20.2703C121.021 21.5524 121.359 22.9853 121.359 24.569C121.359 26.115 121.021 27.5479 120.344 28.8677C119.668 30.1498 118.691 31.2056 117.488 31.9598C116.248 32.7139 114.857 33.091 113.316 33.091C111.7 33.091 110.309 32.7139 109.069 31.9598ZM108.768 27.5857C109.219 28.4906 109.82 29.1694 110.61 29.6973C111.399 30.1875 112.263 30.4515 113.278 30.4515C114.255 30.4515 115.158 30.1875 115.947 29.6973C116.736 29.2071 117.338 28.4906 117.751 27.5857C118.202 26.6807 118.428 25.7003 118.428 24.569C118.428 22.9476 117.976 21.5901 117.037 20.572C116.097 19.5538 114.857 19.0259 113.278 19.0259C111.7 19.0259 110.422 19.5538 109.52 20.572C108.618 21.5901 108.129 22.9476 108.129 24.569C108.091 25.7003 108.317 26.6807 108.768 27.5857Z" fill="white"></path>
<path d="M128.424 32.4877C127.484 32.0729 126.733 31.5073 126.094 30.7531V38.8603H123.162V16.4618H126.094V18.5734C127.409 16.9143 129.251 16.0847 131.581 16.0847C133.085 16.0847 134.4 16.4618 135.528 17.216C136.655 17.9701 137.482 18.9882 138.084 20.2703C138.648 21.5524 138.948 22.9853 138.948 24.569C138.948 26.115 138.648 27.5479 138.009 28.8677C137.407 30.1498 136.505 31.2056 135.378 31.9598C134.25 32.7139 132.972 33.091 131.581 33.091C130.416 33.091 129.364 32.8648 128.424 32.4877ZM127.447 28.7923C128.349 29.8858 129.627 30.4138 131.205 30.4138C132.07 30.4138 132.859 30.1498 133.573 29.6596C134.288 29.1317 134.889 28.4529 135.302 27.5479C135.753 26.643 135.979 25.6625 135.979 24.5313C135.979 23.5132 135.753 22.5705 135.302 21.7409C134.851 20.9113 134.288 20.2326 133.573 19.7424C132.859 19.2522 132.07 19.0259 131.205 19.0259C129.589 19.0259 128.349 19.5539 127.447 20.572C126.545 21.5901 126.094 22.9099 126.094 24.569C126.094 26.3036 126.545 27.6988 127.447 28.7923Z" fill="white"></path>
</svg>