<?xml version="1.0" encoding="UTF-8"?>
<svg version="1.1" xmlns="http://www.w3.org/2000/svg" viewBox="78 250 710 150">
<path d="M0 0 C8.641875 -0.061875 17.28375 -0.12375 26.1875 -0.1875 C28.88832764 -0.21481201 31.58915527 -0.24212402 34.37182617 -0.27026367 C36.55386918 -0.2790396 38.73591716 -0.2866809 40.91796875 -0.29296875 C42.01741821 -0.30831665 43.11686768 -0.32366455 44.24963379 -0.33947754 C55.62018582 -0.34324304 66.5185632 1.42067598 76 8 C77.04800781 8.72123047 77.04800781 8.72123047 78.1171875 9.45703125 C84.79171591 14.63293913 89.5090499 22.63144139 91 31 C92.06587767 42.67897391 90.25840679 53.22737563 82.6875 62.5 C73.83893156 71.5190976 61.26639503 75.67646241 48.74853516 76.11352539 C47.03609619 76.10567017 47.03609619 76.10567017 45.2890625 76.09765625 C44.16709473 76.09515869 43.04512695 76.09266113 41.88916016 76.09008789 C39.77840088 76.07643188 39.77840088 76.07643188 37.625 76.0625 C30.880625 76.0315625 30.880625 76.0315625 24 76 C24 85.57 24 95.14 24 105 C16.08 105 8.16 105 0 105 C0 70.35 0 35.7 0 0 Z " fill="#323232" transform="translate(88,269)"/>
<path d="M0 0 C1.00023193 0.00523682 2.00046387 0.01047363 3.03100586 0.01586914 C4.1105957 0.0190918 5.19018555 0.02231445 6.30249023 0.02563477 C8.00695312 0.03820312 8.00695312 0.03820312 9.74584961 0.05102539 C11.45611328 0.05779297 11.45611328 0.05779297 13.20092773 0.06469727 C16.02845312 0.07652792 18.85587601 0.09301129 21.68334961 0.11352539 C29.32742004 15.97447774 36.52632582 32.02896594 43.68334961 48.11352539 C44.19833008 49.27013672 44.71331055 50.42674805 45.24389648 51.6184082 C47.72373359 57.18926493 50.19983044 62.76175458 52.67163086 68.33618164 C54.51793363 72.49754395 56.37239105 76.65508036 58.23680115 80.80834961 C59.36566519 83.32362217 60.49186186 85.84008499 61.6178894 88.35662842 C62.41845869 90.14280183 63.22286552 91.92725366 64.02734375 93.71166992 C64.50679443 94.78400879 64.98624512 95.85634766 65.48022461 96.96118164 C66.11976074 98.38442749 66.11976074 98.38442749 66.7722168 99.83642578 C67.68334961 102.11352539 67.68334961 102.11352539 67.68334961 104.11352539 C59.43334961 104.11352539 51.18334961 104.11352539 42.68334961 104.11352539 C39.19179582 96.74246739 36.27716437 89.89496966 33.68334961 82.11352539 C17.51334961 82.11352539 1.34334961 82.11352539 -15.31665039 82.11352539 C-16.30665039 85.41352539 -17.29665039 88.71352539 -18.31665039 92.11352539 C-19.87736098 96.16697656 -21.59930982 100.12186893 -23.31665039 104.11352539 C-31.56665039 104.11352539 -39.81665039 104.11352539 -48.31665039 104.11352539 C-46.45131763 98.51752711 -44.7378248 93.54975718 -42.30493164 88.28149414 C-42.01980209 87.65982864 -41.73467255 87.03816315 -41.44090271 86.3976593 C-40.82739793 85.06085057 -40.21191503 83.72494815 -39.59460449 82.38989258 C-37.90948947 78.74395905 -36.24088714 75.09046859 -34.57055664 71.43774414 C-34.04780655 70.2958815 -34.04780655 70.2958815 -33.51449585 69.13095093 C-29.63804283 60.65205035 -25.84718264 52.13553014 -22.06665039 43.61352539 C-21.73298462 42.86206238 -21.39931885 42.11059937 -21.05554199 41.33636475 C-17.65283777 33.67189869 -14.26270946 26.00208146 -10.89868164 18.32055664 C-10.38402344 17.1462207 -9.86936523 15.97188477 -9.33911133 14.76196289 C-8.39076364 12.59503599 -7.44466997 10.42712073 -6.5012207 8.25805664 C-6.09097656 7.31961914 -5.68073242 6.38118164 -5.25805664 5.41430664 C-4.72740601 4.19481323 -4.72740601 4.19481323 -4.18603516 2.95068359 C-2.8559337 0.13995249 -2.8559337 0.13995249 0 0 Z " fill="#333333" transform="translate(242.316650390625,268.886474609375)"/>
<path d="M0 0 C7.92 0 15.84 0 24 0 C24.0093457 1.97726074 24.01869141 3.95452148 24.02832031 5.99169922 C24.06398104 12.55766761 24.11786304 19.12329351 24.18390274 25.68902397 C24.22324889 29.66607072 24.25549978 33.64290033 24.27099609 37.62011719 C24.28624834 41.46537751 24.32084279 45.31004034 24.36830902 49.15503311 C24.38303526 50.61482648 24.39103594 52.0747052 24.39188385 53.5345726 C24.40340542 63.43357901 24.93928367 72.12714041 31.5 80 C37.97927307 85.18341846 45.0692981 84.7267532 53.0390625 84.22509766 C57.44935119 83.71883693 60.00564091 82.15828877 63 79 C68.79150055 70.94655612 68.73605344 62.44550662 68.70703125 52.9296875 C68.72017059 51.39696304 68.73548161 49.86425582 68.75285339 48.33157349 C68.79245584 44.33014666 68.80287766 40.32917531 68.80688477 36.32757568 C68.81626337 32.23126626 68.85370601 28.13521928 68.88867188 24.0390625 C68.95299536 16.02599135 68.98384285 8.01331316 69 0 C77.25 0 85.5 0 94 0 C94.09109586 8.19862704 94.16416736 16.39684741 94.20724869 24.59584808 C94.22794643 28.40475061 94.25592844 32.21328304 94.30175781 36.02197266 C94.34586404 39.71139554 94.36927018 43.40046708 94.37950897 47.09013367 C94.38678629 48.48367328 94.40098877 49.87719808 94.42292023 51.27058411 C94.65811751 66.86237947 92.19058801 82.43074945 81.3125 94.25 C70.32388982 104.67775484 56.24748714 106.3442856 41.75 106.21484375 C29.39744012 105.50714501 18.41299404 100.46620262 9.97265625 91.4453125 C0.56144236 79.77913449 -0.45528638 65.58819631 -0.29296875 51.171875 C-0.28735808 49.68687371 -0.28309496 48.20186679 -0.28010559 46.71685791 C-0.26877232 42.85020005 -0.23940791 38.98389225 -0.20599365 35.11737061 C-0.17504095 31.15511813 -0.16154699 27.19280785 -0.14648438 23.23046875 C-0.11452413 15.48680277 -0.06185407 7.74349547 0 0 Z " fill="#343434" transform="translate(573,269)"/>
<path d="M0 0 C25.74 0 51.48 0 78 0 C78 6.6 78 13.2 78 20 C60.18 20 42.36 20 24 20 C24 28.91 24 37.82 24 47 C39.51 47 55.02 47 71 47 C71 53.6 71 60.2 71 67 C55.49 67 39.98 67 24 67 C24 79.54 24 92.08 24 105 C16.08 105 8.16 105 0 105 C0 70.35 0 35.7 0 0 Z " fill="#333333" transform="translate(463,269)"/>
<path d="M0 0 C8.25 0 16.5 0 25 0 C25 27.72 25 55.44 25 84 C42.82 84 60.64 84 79 84 C79 90.6 79 97.2 79 104 C52.93 104 26.86 104 0 104 C0 69.68 0 35.36 0 0 Z " fill="#373737" transform="translate(699,269)"/>
<path d="M0 0 C1.2890625 0.01289063 2.578125 0.02578125 3.90625 0.0390625 C5.25261518 0.07247594 6.59896935 0.10633563 7.9453125 0.140625 C9.31507819 0.16071144 10.68487216 0.17895845 12.0546875 0.1953125 C15.39395236 0.2423444 18.73176812 0.30806636 22.0703125 0.390625 C18.97391143 4.63505749 15.95959052 8.76610798 12.1328125 12.390625 C9.48120596 14.96675887 6.97679742 17.58397288 4.5703125 20.390625 C1.62452455 23.81845097 -1.49144097 27.00197317 -4.7421875 30.140625 C-7.2917162 32.76299737 -9.66692076 35.51140856 -12.06494141 38.27197266 C-15.00571172 41.61316207 -18.06029571 44.84345996 -21.1171875 48.078125 C-22.43134317 49.47492784 -23.7451401 50.87206826 -25.05859375 52.26953125 C-25.70715332 52.95934082 -26.35571289 53.64915039 -27.02392578 54.35986328 C-29.87849035 57.40166037 -32.7205876 60.45476112 -35.5546875 63.515625 C-36.02672607 64.02311279 -36.49876465 64.53060059 -36.98510742 65.0534668 C-39.21439949 67.46542862 -41.36089265 69.91261018 -43.453125 72.4453125 C-45.82138535 75.26182403 -48.29413903 77.82530274 -50.9296875 80.390625 C-56.08168339 85.46807432 -61.1444358 90.54053561 -65.85546875 96.03125 C-76.19230869 107.7891621 -87.19268644 118.99964679 -97.9296875 130.390625 C-98.5896875 130.060625 -99.2496875 129.730625 -99.9296875 129.390625 C-98.63941588 125.86098772 -97.12493321 122.99797302 -94.9296875 119.953125 C-94.30449219 119.07914062 -93.67929687 118.20515625 -93.03515625 117.3046875 C-92.34035156 116.34304688 -91.64554687 115.38140625 -90.9296875 114.390625 C-89.77733988 112.77853248 -88.62503637 111.16640801 -87.47387695 109.5534668 C-86.64360431 108.3904268 -85.81269866 107.22783846 -84.98120117 106.06567383 C-77.86393523 96.11538625 -70.82397225 86.1098073 -63.81640625 76.08203125 C-60.25816876 71.00620179 -56.6784494 65.9455087 -53.1015625 60.8828125 C-51.04633901 57.97355184 -48.99423929 55.0621359 -46.9453125 52.1484375 C-41.28752238 44.10773032 -35.58568292 36.1020042 -29.80078125 28.15209961 C-27.03319015 24.34042479 -24.3089602 20.50720466 -21.65234375 16.6171875 C-21.12125 15.84503906 -20.59015625 15.07289063 -20.04296875 14.27734375 C-19.04022138 12.8148986 -18.04609593 11.34648765 -17.0625 9.87109375 C-16.60746094 9.20980469 -16.15242188 8.54851562 -15.68359375 7.8671875 C-15.29502197 7.29049316 -14.9064502 6.71379883 -14.50610352 6.11962891 C-10.17691479 1.37139992 -6.33705322 -0.11216023 0 0 Z " fill="#08A1DA" transform="translate(416.9296875,259.609375)"/>
<path d="M0 0 C4.29 -0.0825 8.58 -0.165 13 -0.25 C14.33675781 -0.28641602 15.67351562 -0.32283203 17.05078125 -0.36035156 C24.20868945 -0.42678724 28.97368073 0.02988648 35 4 C39.14746899 8.07348888 41.15868004 11.31222454 41.3125 17.125 C41.23480432 22.51425512 40.55955274 26.80763789 37 31 C31.45462938 34.90903175 25.83579918 36.1318153 19.140625 36.09765625 C18.13547852 36.09515869 17.13033203 36.09266113 16.09472656 36.09008789 C14.19158691 36.07643188 14.19158691 36.07643188 12.25 36.0625 C8.2075 36.041875 4.165 36.02125 0 36 C0 24.12 0 12.24 0 0 Z " fill="#FDFDFD" transform="translate(113,289)"/>
<path d="M0 0 C3.03982947 1.31527209 4.67169672 2.50723465 6.5234375 5.24609375 C6.98024902 5.90931641 7.43706055 6.57253906 7.90771484 7.25585938 C8.39191895 7.97580078 8.87612305 8.69574219 9.375 9.4375 C10.43552019 10.97922832 11.49810387 12.51953879 12.5625 14.05859375 C13.119375 14.86538574 13.67625 15.67217773 14.25 16.50341797 C17.7636072 21.51599431 21.44082311 26.4097114 25.10302734 31.31420898 C36 45.98100542 36 45.98100542 36 48 C31.62535204 48.14564235 27.2513304 48.23419143 22.875 48.3125 C21.6375 48.35439453 20.4 48.39628906 19.125 48.43945312 C9.99648409 48.56214823 9.99648409 48.56214823 5.55859375 46.05859375 C2.22640613 42.07523053 -0.87409254 38.03196662 -3.8125 33.75 C-4.39708984 32.94175781 -4.98167969 32.13351562 -5.58398438 31.30078125 C-9.23045203 26.01910736 -11.40937666 21.53009747 -11 15 C-10.21484375 12.6171875 -10.21484375 12.6171875 -8.9375 10.875 C-8.47859375 10.23304688 -8.0196875 9.59109375 -7.546875 8.9296875 C-5.10482026 5.88328588 -2.6272341 2.88905468 0 0 Z " fill="#323335" transform="translate(394,325)"/>
<path d="M0 0 C4.20809884 -0.11656783 8.41577996 -0.18737611 12.625 -0.25 C14.40970703 -0.30027344 14.40970703 -0.30027344 16.23046875 -0.3515625 C27.33997243 -0.47569103 27.33997243 -0.47569103 32 4 C33.79583733 6.05120869 35.33523236 7.96950138 36.875 10.1875 C37.2771875 10.71408203 37.679375 11.24066406 38.09375 11.78320312 C40.85928108 15.71985195 41.71855553 19.03060842 41.48876953 23.72729492 C40.59214941 27.89644414 38.15790326 30.82011925 35.5 34.0625 C34.71302734 35.07473633 34.71302734 35.07473633 33.91015625 36.10742188 C32.62600559 37.75346954 31.31560729 39.37898387 30 41 C25.5151131 36.80906636 21.9779419 32.14466141 18.375 27.1875 C17.76833496 26.35814941 17.16166992 25.52879883 16.53662109 24.67431641 C12.49509237 19.12369631 8.52475769 13.52607981 4.625 7.875 C4.15497559 7.1946167 3.68495117 6.5142334 3.20068359 5.81323242 C0 1.1276017 0 1.1276017 0 0 Z " fill="#343434" transform="translate(327,269)"/>
<path d="M0 0 C3.21274697 1.60637348 3.89514134 4.96215114 5.22265625 8.140625 C5.52819931 8.85982117 5.83374237 9.57901733 6.14854431 10.32000732 C6.79470925 11.84528077 7.43756804 13.37195837 8.07739258 14.89990234 C9.05409969 17.22996002 10.04276935 19.55465544 11.03320312 21.87890625 C11.65957889 23.36167322 12.28525265 24.84473699 12.91015625 26.328125 C13.20495377 27.02101624 13.49975128 27.71390747 13.80348206 28.42779541 C15.29779897 32.01446385 16.22965067 35.14825335 17 39 C6.44 39 -4.12 39 -15 39 C-14.17501087 34.87505435 -13.18367898 31.69501342 -11.6015625 27.8515625 C-11.12203125 26.68109375 -10.6425 25.510625 -10.1484375 24.3046875 C-9.39433594 22.48324219 -9.39433594 22.48324219 -8.625 20.625 C-8.13 19.4184375 -7.635 18.211875 -7.125 16.96875 C-4.79266052 11.29380634 -2.44094914 5.6291276 0 0 Z " fill="#F8F8F8" transform="translate(251,294)"/>
<path d="M0 0 C17.82 0 35.64 0 54 0 C54 0.33 54 0.66 54 1 C36.51 1 19.02 1 1 1 C1.66 1.66 2.32 2.32 3 3 C3.24609566 4.80783272 3.24609566 4.80783272 3.24050903 7.03689575 C3.24325836 7.88106049 3.24600769 8.72522522 3.24884033 9.5949707 C3.24164978 10.522854 3.23445923 11.4507373 3.22705078 12.40673828 C3.22734283 13.38238739 3.22763489 14.3580365 3.22793579 15.36325073 C3.22653868 18.59902741 3.21095951 21.83457588 3.1953125 25.0703125 C3.19158373 27.30947748 3.18873612 29.54864409 3.18673706 31.78781128 C3.17908992 37.6897632 3.15943215 43.59161714 3.1373291 49.49353027 C3.11689392 55.51260045 3.10774033 61.53168641 3.09765625 67.55078125 C3.07618727 79.36723754 3.04099633 91.18359531 3 103 C9.93 103.33 16.86 103.66 24 104 C24 104.33 24 104.66 24 105 C16.08 105 8.16 105 0 105 C0 70.35 0 35.7 0 0 Z " fill="#5D5D5D" transform="translate(88,269)"/>
<path d="M0 0 C0.495 1.485 0.495 1.485 1 3 C0.54625 3.391875 0.0925 3.78375 -0.375 4.1875 C-2.27642919 6.30832487 -3.06204028 8.33042235 -4 11 C-4.66 11 -5.32 11 -6 11 C-5.67 13.31 -5.34 15.62 -5 18 C-4.01 18.33 -3.02 18.66 -2 19 C-11.96646025 29.69837217 -21.97104665 40.36019579 -32 51 C-32.66 50.67 -33.32 50.34 -34 50 C-32.70972838 46.47036272 -31.19524571 43.60734802 -29 40.5625 C-28.06220703 39.25152344 -28.06220703 39.25152344 -27.10546875 37.9140625 C-26.41066406 36.95242188 -25.71585937 35.99078125 -25 35 C-23.8473113 33.38743031 -22.69466905 31.77482697 -21.54321289 30.16137695 C-20.71631732 29.00313263 -19.88866885 27.84542548 -19.06030273 26.68823242 C-15.01918705 21.04072944 -11.01724458 15.36582039 -7.02270508 9.68530273 C-4.72509272 6.42242355 -2.42368094 3.1713249 0 0 Z " fill="#179FD0" transform="translate(351,339)"/>
<path d="M0 0 C0.8125 1.6875 0.8125 1.6875 1 4 C-1.3125 6.75 -1.3125 6.75 -4 9 C-4.66 9 -5.32 9 -6 9 C-6 9.66 -6 10.32 -6 11 C-6.66 11 -7.32 11 -8 11 C-8.226875 11.5775 -8.45375 12.155 -8.6875 12.75 C-10.32741284 15.56127916 -12.47216681 16.97773345 -15 19 C-15.33 19.721875 -15.66 20.44375 -16 21.1875 C-16.495 22.0846875 -16.495 22.0846875 -17 23 C-19.625 23.75 -19.625 23.75 -22 24 C-18.08178637 19.31991149 -14.01337545 14.79741722 -9.875 10.3125 C-9.3603418 9.75409424 -8.84568359 9.19568848 -8.31542969 8.62036133 C-5.59982135 5.68664418 -2.85130101 2.80355195 0 0 Z " fill="#CDF6FC" transform="translate(421,280)"/>
<path d="M0 0 C0 1.32 0 2.64 0 4 C-0.639375 4.226875 -1.27875 4.45375 -1.9375 4.6875 C-4.27193661 5.85250896 -4.27193661 5.85250896 -4.75 8.625 C-4.8325 9.40875 -4.915 10.1925 -5 11 C-6.65 11.33 -8.3 11.66 -10 12 C-10.71281198 5.94109817 -10.71281198 5.94109817 -8.8046875 3.421875 C-5.66195845 0.67396115 -4.24052998 0 0 0 Z " fill="#17A2D4" transform="translate(342,360)"/>
<path d="M0 0 C0.33 0.99 0.66 1.98 1 3 C0.54625 3.391875 0.0925 3.78375 -0.375 4.1875 C-2.14134108 5.93339098 -2.14134108 5.93339098 -2.875 8.375 C-4.29482114 11.687916 -6.40554899 13.53859776 -9 16 C-9.33 16.66 -9.66 17.32 -10 18 C-10.66 18 -11.32 18 -12 18 C-10.18633597 13.87235084 -7.50853382 10.37940795 -4.875 6.75 C-4.17310547 5.77546875 -4.17310547 5.77546875 -3.45703125 4.78125 C-2.30725718 3.18564517 -1.15397434 1.59256975 0 0 Z " fill="#2EA5CC" transform="translate(351,339)"/>
<path d="M0 0 C0.33 0.99 0.66 1.98 1 3 C0.67 3.66 0.34 4.32 0 5 C-0.66 5 -1.32 5 -2 5 C-2.061875 5.721875 -2.12375 6.44375 -2.1875 7.1875 C-3.25010039 10.86573212 -5.22416973 12.42727926 -8 15 C-8.99 16.485 -8.99 16.485 -10 18 C-10.66 17.67 -11.32 17.34 -12 17 C-8.04 11.39 -4.08 5.78 0 0 Z " fill="#2DA2CD" transform="translate(377,302)"/>
<path d="M0 0 C0.33 0.99 0.66 1.98 1 3 C-0.40580276 4.65512248 -1.82506266 6.29882206 -3.25 7.9375 C-4.03890625 8.85402344 -4.8278125 9.77054687 -5.640625 10.71484375 C-7.91251033 12.91526249 -8.92319022 13.66832555 -12 14 C-8 9.33333333 -4 4.66666667 0 0 Z " fill="#D3F7FD" transform="translate(398,304)"/>
<path d="M0 0 C0.99 0.33 1.98 0.66 3 1 C2.06862408 2.29608947 1.1296434 3.58671632 0.1875 4.875 C-0.33457031 5.59429687 -0.85664063 6.31359375 -1.39453125 7.0546875 C-3 9 -3 9 -6 11 C-6.33 9.68 -6.66 8.36 -7 7 C-5.35 6.67 -3.7 6.34 -2 6 C-2 4.68 -2 3.36 -2 2 C-1.34 2 -0.68 2 0 2 C0 1.34 0 0.68 0 0 Z " fill="#1EA2D1" transform="translate(344,358)"/>
<path d="M0 0 C0.99 1.32 1.98 2.64 3 4 C0.03 6.475 0.03 6.475 -3 9 C-3.33 8.01 -3.66 7.02 -4 6 C-2.0625 2.8125 -2.0625 2.8125 0 0 Z " fill="#299FC8" transform="translate(321,381)"/>
<path d="M0 0 C1.32 0 2.64 0 4 0 C4 1.32 4 2.64 4 4 C1.69 4.66 -0.62 5.32 -3 6 C-2.42655063 3.13275314 -2.1385485 2.1385485 0 0 Z " fill="#01A1DE" transform="translate(338,360)"/>
<path d="M0 0 C0.33 1.32 0.66 2.64 1 4 C-1.97 6.475 -1.97 6.475 -5 9 C-5.66 8.34 -6.32 7.68 -7 7 C-4.69 4.69 -2.38 2.38 0 0 Z " fill="#DCF8FE" transform="translate(421,280)"/>
<path d="M0 0 C1.65 0 3.3 0 5 0 C1.25 6.875 1.25 6.875 -1 8 C-1.33 7.01 -1.66 6.02 -2 5 C-1.01 5 -0.02 5 1 5 C0.67 3.35 0.34 1.7 0 0 Z " fill="#DDFAFC" transform="translate(382,288)"/>
<path d="M0 0 C1.32 0.66 2.64 1.32 4 2 C0.535 4.97 0.535 4.97 -3 8 C-3 6.68 -3 5.36 -3 4 C-2.01 4 -1.02 4 0 4 C0 2.68 0 1.36 0 0 Z " fill="#25A4CA" transform="translate(420,276)"/>
<path d="M0 0 C1.32 0.33 2.64 0.66 4 1 C0.535 3.97 0.535 3.97 -3 7 C-1.125 1.125 -1.125 1.125 0 0 Z " fill="#259DD1" transform="translate(363,338)"/>
<path d="M0 0 C0.66 0.33 1.32 0.66 2 1 C2.625 3.0625 2.625 3.0625 3 5 C2.34 5 1.68 5 1 5 C0.67 5.99 0.34 6.98 0 8 C-1.125 6.25 -1.125 6.25 -2 4 C-1.125 1.75 -1.125 1.75 0 0 Z " fill="#E4E4E4" transform="translate(251,294)"/>
<path d="M0 0 C0.66 0.33 1.32 0.66 2 1 C-1.465 3.97 -1.465 3.97 -5 7 C-5 6.34 -5 5.68 -5 5 C-5.66 5 -6.32 5 -7 5 C-7 4.34 -7 3.68 -7 3 C-5.5459375 2.5359375 -5.5459375 2.5359375 -4.0625 2.0625 C-1.15934208 1.30476658 -1.15934208 1.30476658 0 0 Z " fill="#179ED4" transform="translate(429,269)"/>
<path d="M0 0 C0.99 0 1.98 0 3 0 C3.33 0.99 3.66 1.98 4 3 C3.01 3.66 2.02 4.32 1 5 C0.34 5.99 -0.32 6.98 -1 8 C-1.125 2.25 -1.125 2.25 0 0 Z " fill="#4E5052" transform="translate(384,338)"/>
<path d="M0 0 C-0.33 1.32 -0.66 2.64 -1 4 C-2.32 4 -3.64 4 -5 4 C-5 3.01 -5 2.02 -5 1 C-3 0 -3 0 0 0 Z " fill="#0E9DDB" transform="translate(337,368)"/>
<path d="M0 0 C0 3.93169105 -1.39419615 5.16427228 -4 8 C-4.66 8 -5.32 8 -6 8 C-4.55746343 4.63408134 -2.66735273 2.48952921 0 0 Z " fill="#C2F0FC" transform="translate(350,356)"/>
<path d="M0 0 C0.33 0.66 0.66 1.32 1 2 C-0.32 3.65 -1.64 5.3 -3 7 C-3.99 6.67 -4.98 6.34 -6 6 C-4.02 4.02 -2.04 2.04 0 0 Z " fill="#D6F9FE" transform="translate(381,323)"/>
<path d="M0 0 C1.32 0.33 2.64 0.66 4 1 C1.03 3.475 1.03 3.475 -2 6 C-2.33 5.34 -2.66 4.68 -3 4 C-2.34 4 -1.68 4 -1 4 C-0.67 2.68 -0.34 1.36 0 0 Z " fill="#21A0DA" transform="translate(402,296)"/>
<path d="M0 0 C0.99 0 1.98 0 3 0 C2.6875 1.875 2.6875 1.875 2 4 C1.01 4.66 0.02 5.32 -1 6 C-1.042721 4.33388095 -1.04063832 2.66617115 -1 1 C-0.67 0.67 -0.34 0.34 0 0 Z " fill="#02A4E5" transform="translate(427,266)"/>
<path d="M0 0 C1.32 0 2.64 0 4 0 C3.625 2.4375 3.625 2.4375 3 5 C2.01 5.495 2.01 5.495 1 6 C0.67 4.02 0.34 2.04 0 0 Z " fill="#18A3D6" transform="translate(432,261)"/>
</svg>
